<?xml version="1.0" encoding="UTF-8" standalone="no"?>
<!-- Created with Inkscape (http://www.inkscape.org/) -->

<svg
   xmlns:dc="http://purl.org/dc/elements/1.1/"
   xmlns:cc="http://creativecommons.org/ns#"
   xmlns:rdf="http://www.w3.org/1999/02/22-rdf-syntax-ns#"
   xmlns:svg="http://www.w3.org/2000/svg"
   xmlns="http://www.w3.org/2000/svg"
   xmlns:sodipodi="http://sodipodi.sourceforge.net/DTD/sodipodi-0.dtd"
   xmlns:inkscape="http://www.inkscape.org/namespaces/inkscape"
   width="48"
   height="48"
   viewBox="0 0 12.7 12.7"
   version="1.1"
   id="svg8"
   inkscape:version="0.92.3 (2405546, 2018-03-11)"
   sodipodi:docname="search-icon.svg">
  <defs
     id="defs2" />
  <sodipodi:namedview
     id="base"
     pagecolor="#ffffff"
     bordercolor="#666666"
     borderopacity="1.0"
     inkscape:pageopacity="0.0"
     inkscape:pageshadow="2"
     inkscape:zoom="7.9195959"
     inkscape:cx="25.186533"
     inkscape:cy="2.4611565"
     inkscape:document-units="mm"
     inkscape:current-layer="layer1"
     showgrid="false"
     units="px"
     inkscape:window-width="1920"
     inkscape:window-height="1001"
     inkscape:window-x="-9"
     inkscape:window-y="-9"
     inkscape:window-maximized="1" />
  <metadata
     id="metadata5">
    <rdf:RDF>
      <cc:Work
         rdf:about="">
        <dc:format>image/svg+xml</dc:format>
        <dc:type
           rdf:resource="http://purl.org/dc/dcmitype/StillImage" />
        <dc:title></dc:title>
      </cc:Work>
    </rdf:RDF>
  </metadata>
  <g
     inkscape:label="Capa 1"
     inkscape:groupmode="layer"
     id="layer1"
     transform="translate(0,-284.3)">
    <path
       style="fill:#666666;fill-opacity:1;stroke:none;stroke-width:0;stroke-miterlimit:4;stroke-dasharray:none;stroke-opacity:1"
       d="M 32.113281 5.953125 A 11.907157 11.907157 0 0 0 20.205078 17.859375 A 11.907157 11.907157 0 0 0 21.824219 23.832031 L 5.0488281 36.341797 C 5.1104684 40.304518 6.684812 42.887147 10.355469 43.554688 L 25.197266 27.535156 A 11.907157 11.907157 0 0 0 32.113281 29.767578 A 11.907157 11.907157 0 0 0 44.019531 17.859375 A 11.907157 11.907157 0 0 0 32.113281 5.953125 z M 32.103516 9.3613281 A 8.4915953 8.4915953 0 0 1 40.595703 17.853516 A 8.4915953 8.4915953 0 0 1 32.103516 26.34375 A 8.4915953 8.4915953 0 0 1 23.613281 17.853516 A 8.4915953 8.4915953 0 0 1 32.103516 9.3613281 z "
       transform="matrix(0.26458333,0,0,0.26458333,0,284.3)"
       id="path815" />
  </g>
</svg>
