<?xml version="1.0" encoding="UTF-8" standalone="no"?>
<!-- Created with Inkscape (http://www.inkscape.org/) -->

<svg
   xmlns:dc="http://purl.org/dc/elements/1.1/"
   xmlns:cc="http://creativecommons.org/ns#"
   xmlns:rdf="http://www.w3.org/1999/02/22-rdf-syntax-ns#"
   xmlns:svg="http://www.w3.org/2000/svg"
   xmlns="http://www.w3.org/2000/svg"
   xmlns:sodipodi="http://sodipodi.sourceforge.net/DTD/sodipodi-0.dtd"
   xmlns:inkscape="http://www.inkscape.org/namespaces/inkscape"
   width="100mm"
   height="100mm"
   viewBox="0 0 100 100"
   version="1.1"
   id="svg8"
   inkscape:version="0.92.3 (2405546, 2018-03-11)"
   sodipodi:docname="logo.svg">
  <defs
     id="defs2" />
  <sodipodi:namedview
     id="base"
     pagecolor="#ffffff"
     bordercolor="#666666"
     borderopacity="1.0"
     inkscape:pageopacity="0.0"
     inkscape:pageshadow="2"
     inkscape:zoom="1.4"
     inkscape:cx="245.21012"
     inkscape:cy="113.20714"
     inkscape:document-units="mm"
     inkscape:current-layer="layer1"
     showgrid="false"
     inkscape:window-width="1920"
     inkscape:window-height="1001"
     inkscape:window-x="-9"
     inkscape:window-y="-9"
     inkscape:window-maximized="1" />
  <metadata
     id="metadata5">
    <rdf:RDF>
      <cc:Work
         rdf:about="">
        <dc:format>image/svg+xml</dc:format>
        <dc:type
           rdf:resource="http://purl.org/dc/dcmitype/StillImage" />
        <dc:title></dc:title>
      </cc:Work>
    </rdf:RDF>
  </metadata>
  <g
     inkscape:label="Capa 1"
     inkscape:groupmode="layer"
     id="layer1"
     transform="translate(0,-197)">
    <path
       style="fill:#642e44;fill-opacity:1;stroke:#000000;stroke-width:0.26458332px;stroke-linecap:butt;stroke-linejoin:miter;stroke-opacity:1"
       d="m 73.612782,272.6481 8.031993,-52.44419 -53.767113,-2.17337 -18.142855,49.1369 0.461029,1.14798 31.40417,1.60362 31.136899,3.60813 z"
       id="path1372"
       inkscape:connector-curvature="0"
       sodipodi:nodetypes="cccccccc" />
    <path
       style="fill:#76161f;fill-opacity:1;stroke:#000000;stroke-width:0.26458332px;stroke-linecap:butt;stroke-linejoin:miter;stroke-opacity:1"
       d="m 43.823533,266.52961 -0.02363,2.3151 -0.59059,1.2048 -3.827008,-0.18899 -0.118117,-1.25204 1.81901,-3.35454 c 0,0 2.574962,0.14174 2.622209,0.4016 0.04725,0.25986 0.118118,0.87407 0.118118,0.87407 z"
       id="path1378"
       inkscape:connector-curvature="0" />
    <path
       style="fill:#fff6f1;fill-opacity:1;stroke:#000000;stroke-width:0.26458332px;stroke-linecap:butt;stroke-linejoin:miter;stroke-opacity:1"
       d="m 83.026781,218.80374 c 0,0 -4.409948,-4.54358 -12.160763,-5.07812 -11.358956,-1.73725 -17.305702,2.13816 -17.305702,2.13816 0,0 -1.978746,-2.84664 -6.347651,-3.00678 -12.385907,-0.87663 -13.185297,0.0891 -19.510676,0.73498 -5.356046,14.40701 -9.812531,29.42713 -14.566188,44.09948 l 0.534538,7.34991 c 0,0 26.726953,-0.13364 28.597841,0.93544 1.870884,1.06908 30.067821,4.27631 30.067821,4.27631 l 4.944486,-6.5481 z"
       id="path1366"
       inkscape:connector-curvature="0"
       sodipodi:nodetypes="cccccccsccc" />
    <path
       style="fill:none;stroke:#000000;stroke-width:0.16500001;stroke-linecap:butt;stroke-linejoin:miter;stroke-miterlimit:4;stroke-dasharray:none;stroke-opacity:1"
       d="m 77.280487,263.70502 -23.515785,-1.36321 c -7.890174,-0.58038 -8.772185,0.90557 -11.173901,2.48047 0,0 -0.877546,-4.44253 -5.853742,-5.16938 -3.583061,-0.52335 -23.601258,-1.96144 -23.601258,-1.96144 v 0"
       id="path1368"
       inkscape:connector-curvature="0"
       sodipodi:nodetypes="cccscc" />
    <path
       style="fill:none;stroke:#000000;stroke-width:0.16500001;stroke-linecap:butt;stroke-linejoin:miter;stroke-miterlimit:4;stroke-dasharray:none;stroke-opacity:1"
       d="m 53.560316,215.86378 c -5.134351,17.73871 -7.596018,32.54515 -10.969515,48.9585"
       id="path1370"
       inkscape:connector-curvature="0"
       sodipodi:nodetypes="cc" />
    <path
       style="fill:none;stroke:#000000;stroke-width:0.26458332px;stroke-linecap:butt;stroke-linejoin:miter;stroke-opacity:1"
       d="m 73.612782,272.6481 -31.010516,-3.86496 -32.867459,-1.6157 v 0 0"
       id="path1374"
       inkscape:connector-curvature="0" />
    <path
       style="fill:#41adff;stroke:#000000;stroke-width:0.3;stroke-linecap:butt;stroke-linejoin:miter;stroke-opacity:1;stroke-miterlimit:4;stroke-dasharray:none;fill-opacity:1"
       d="M 34.281819,212.16231 21.94358,252.87849 h 9.716362 l 4.472611,-16.65662 14.497431,22.67152 c 0,0 10.950187,-0.30846 10.024819,-0.30846 -0.925368,0 -19.586951,-30.99982 -19.586951,-30.99982 l 12.492464,-11.72133 -7.402944,-0.15422 -8.482536,6.78603 2.776103,-10.33328 z"
       id="path1380"
       inkscape:connector-curvature="0" />
    <path
       style="fill:#79acff;stroke:#000000;stroke-width:0.3;stroke-linecap:butt;stroke-linejoin:miter;stroke-miterlimit:4;stroke-dasharray:none;stroke-opacity:1;fill-opacity:1"
       d="m 70.329296,225.14008 0.183155,5.49464 c -5.494639,0.21369 -12.178534,1.26281 -12.088207,6.31884 0.04054,5.29462 5.891475,8.57773 10.62297,8.88299 l 0.732621,6.41042 c -5.344433,0.42251 -13.129165,-4.48414 -15.568145,-7.6925 -1.874672,-2.9652 -1.434714,-8.24195 -0.45789,-11.08085 2.536919,-5.91004 7.600918,-9.09668 16.575496,-8.33354 z"
       id="path1382"
       inkscape:connector-curvature="0"
       sodipodi:nodetypes="cccccccc" />
  </g>
</svg>
